<mxfile host="app.diagrams.net" modified="2023-10-29T16:15:29.739Z" agent="Mozilla/5.0 (Windows NT 10.0; Win64; x64) AppleWebKit/537.36 (KHTML, like Gecko) Chrome/116.0.5845.931 YaBrowser/23.9.0.0 Safari/537.36" version="22.0.8" etag="eVu_sreXoyjq9M_DG6-J" type="github">
  <diagram name="Страница — 1" id="9jNxTQTAQ3OMUKz2g4rZ">
    <mxGraphModel>
      <root>
        <mxCell id="0" />
        <mxCell id="1" parent="0" />
      </root>
    </mxGraphModel>
  </diagram>
</mxfile>
